# AST/ASF file generated using VICON BodyLanguage
# -----------------------------------------------
:version 1.10
:name VICON
:units
  mass 1.0
  length 0.45
  angle deg
:documentation
   .ast/.asf automatically generated from VICON data using
   VICON BodyBuilder and BodyLanguage model FoxedUp or BRILLIANT.MOD
:root
   order TX TY TZ RX RY RZ
   axis XYZ
   position 0 0 0  
   orientation 0 0 0 
:bonedata
  begin
     id 1 
     name lhipjoint
     direction 0.692814 -0.645514 0.321437 
     length 2.38754 
     axis 0 0 0  XYZ
  end
  begin
     id 2 
     name lfemur
     direction 0.34202 -0.939693 0  
     length 6.41921  
     axis 0 0 20  XYZ
    dof rx ry rz
    limits (-160.0 20.0)
           (-70.0 70.0)
           (-60.0 70.0)
  end
  begin
     id 3 
     name ltibia
     direction 0.34202 -0.939693 0   
     length 6.98247   
     axis 0 0 20   XYZ
    dof rx
    limits (-10.0 170.0)
  end
  begin
     id 4 
     name lfoot
     direction 0.0947186 -0.260237 0.960888   
     length 1.83034   
     axis -90 7.62852e-016 20   XYZ
    dof rx rz
    limits (-45.0 90.0)
           (-70.0 20.0)
  end
  begin
     id 5 
     name ltoes
     direction 1.53538e-011 -4.21952e-011 1   
     length 0.920499   
     axis -90 7.62852e-016 20   XYZ
    dof rx
    limits (-90.0 20.0)
  end
  begin
     id 6 
     name rhipjoint
     direction -0.631686 -0.693949 0.345555   
     length 2.2209  
     axis 0 0 0  XYZ 
  end
  begin
     id 7 
     name rfemur
     direction -0.34202 -0.939693 0   
     length 6.49542   
     axis 0 0 -20   XYZ
    dof rx ry rz
    limits (-160.0 20.0)
           (-70.0 70.0)
           (-70.0 60.0)
  end
  begin
     id 8 
     name rtibia
     direction -0.34202 -0.939693 0   
     length 7.21712   
     axis 0 0 -20   XYZ
    dof rx
    limits (-10.0 170.0)
 end
 begin
     id 9 
     name rfoot
     direction -0.0825378 -0.226771 0.970444   
     length 1.89724  
     axis -90 -7.62852e-016 -20   XYZ
    dof rx rz
    limits (-45.0 90.0)
           (-20.0 70.0)
  end
  begin
     id 10 
     name rtoes
     direction -1.53515e-011 -4.22016e-011 1   
     length 0.955868   
     axis -90 -7.62852e-016 -20   XYZ
    dof rx
    limits (-90.0 20.0)
  end
  begin
     id 11 
     name lowerback
     direction -0.0104711 0.984802 -0.173368   
     length 1.84931   
     axis 0 0 0   XYZ
    dof rx ry rz
    limits (-20.0 45.0)
           (-30.0 30.0)
           (-30.0 30.0)
  end
  begin
     id 12 
     name upperback
     direction -0.00286433 0.999996 -0.000382853   
     length 1.85768   
     axis 0 0 0   XYZ
    dof rx ry rz
    limits (-20.0 45.0)
           (-30.0 30.0)
           (-30.0 30.0)
  end
  begin
     id 13 
     name thorax
     direction 0.00167534 0.996793 0.0800069   
     length 1.92   
     axis 0 0 0   XYZ
    dof rx ry rz
    limits (-20.0 45.0)
           (-30.0 30.0)
           (-30.0 30.0)
  end
  begin
     id 14 
     name lowerneck
     direction -0.0672491 0.995415 0.068018   
     length 1.58923   
     axis 0 0 0   XYZ
    dof rx ry rz
    limits (-20.0 45.0)
           (-30.0 30.0)
           (-30.0 30.0)
  end
  begin
     id 15 
     name upperneck
     direction 0.0958019 0.982476 -0.159884   
     length 1.60189   
     axis 0 0 0   XYZ
    dof rx ry rz
    limits (-20.0 45.0)
           (-30.0 30.0)
           (-30.0 30.0)
  end
  begin
     id 16
     name head
     direction 0.032989 0.997338 -0.0650226  
     length 1.61681  
     axis 0 0 0   XYZ
    dof rx ry rz
    limits (-20.0 45.0)
           (-30.0 30.0)
           (-30.0 30.0)
  end
  begin
     id 17 
     name lclavicle
     direction 0.954279 0.298875 -0.00496069  
     length 2.99449  
     axis 0 0 0   XYZ
    dof ry rz
    limits (-20.0 10.0)
           (0.0 20.0)
  end
  begin
     id 18 
     name lhumerus
     direction 1 -4.48985e-011 -4.2057e-027   
     length 4.79185   
     axis 180 -30 -90   XYZ
    dof rx ry rz
    limits (-60.0 90.0)
           (-90.0 90.0)
           (-90.0 90.0)
  end
  begin
     id 19
     name lradius
     direction 1 -4.48945e-011 1.15441e-028   
     length 2.65553   
     axis 180 -30 -90   XYZ
    dof rx
    limits (-10.0 170.0)
  end
  begin
     id 20
     name lwrist
     direction 1 -4.4899e-011 4.8894e-028   
     length 1.32777   
     axis -2.56392e-016 90 90   XYZ
    dof ry
    limits (-180.0 0.0)
 end
  begin
     id 21 
     name lhand
     direction 1 -4.48908e-011 9.7788e-028   
     length 0.743904   
     axis -6.23971e-016 90 90   XYZ
    dof rx rz
    limits (-90.0 90.0)
           (-45.0 45.0)
  end
  begin
     id 22 
     name lfingers
     direction 1 -4.49068e-011 1.95576e-027   
     length 0.599754   
     axis -1.24794e-015 90 90   XYZ
    dof rx
    limits (0.0 90.0)
  end
  begin
     id 23
     name lthumb
     direction 0.707107 -6.34883e-011 0.707107   
     length 0.861131   
     axis -90 45 2.85299e-015   XYZ
    dof rx rz
    limits (-45.0 45.0)
           (-45.0 45.0)
  end
  begin
     id 24 
     name rclavicle
     direction -0.957921 0.286916 0.00811568   
     length 3.06817  
     axis 0 0 0   XYZ 
    dof ry rz
    limits (-10.0 20.0)
           (-20.0 0.0)
  end
  begin
     id 25 
     name rhumerus
     direction -1 -4.48971e-011 -3.07942e-027  
     length 4.77254   
     axis 180 30 90   XYZ
    dof rx ry rz
    limits (-90.0 60.0)
           (-90.0 90.0)
           (-90.0 90.0)
  end
  begin
     id 26 
     name rradius
     direction -1 -4.48957e-011 -9.6815e-028   
     length 2.75995   
     axis 180 30 90   XYZ
    dof rx
    limits (-10.0 170.0)
  end
  begin
     id 27 
     name rwrist
     direction -1 -4.48979e-011 4.8894e-028   
     length 1.37997   
     axis -2.56392e-016 -90 -90   XYZ
    dof ry
    limits (-180.0 0.0)
  end
  begin
     id 28
     name rhand
     direction -1 -4.48906e-011 9.7788e-028   
     length 0.701619   
     axis -6.23971e-016 -90 -90   XYZ
    dof rx rz
    limits (-90.0 90.0)
           (-45.0 45.0)
  end
  begin
     id 29
     name rfingers
     direction -1 -4.49018e-011 1.95576e-027   
     length 0.565663   
     axis -1.24794e-015 -90 -90   XYZ
    dof rx
    limits (0.0 90.0)
  end
  begin
     id 30
     name rthumb
     direction -0.707107 -6.34881e-011 0.707107   
     length 0.812183   
     axis -90 -45 -2.85299e-015   XYZ
    dof rx rz
    limits (-45.0 45.0)
           (-45.0 45.0)
  end
:hierarchy
  begin
    root lhipjoint rhipjoint lowerback
    lhipjoint lfemur
    lfemur ltibia
    ltibia lfoot
    lfoot ltoes
    rhipjoint rfemur
    rfemur rtibia
    rtibia rfoot
    rfoot rtoes
    lowerback upperback
    upperback thorax
    thorax lowerneck lclavicle rclavicle
    lowerneck upperneck
    upperneck head
    lclavicle lhumerus
    lhumerus lradius
    lradius lwrist
    lwrist lhand lthumb
    lhand lfingers
    rclavicle rhumerus
    rhumerus rradius
    rradius rwrist
    rwrist rhand rthumb
    rhand rfingers
  end

#!OML:ASF F:\VICON\USERDATA\INSTALL\rory3\rory3.ASF
:FULLY-SPECIFIED
:DEGREES
468
root 0.474844 16.2573 -0.376124 9.10604 15.1911 -1.91788
lowerback 16.0116 4.61213 -1.34409
upperback 0.422275 5.65135 -2.41147
thorax -8.39161 2.72469 -3.12547
lowerneck -6.24705 -15.0301 -15.6404
upperneck -6.9783 -19.1457 23.9185
head 3.027 -9.3004 8.3926
rclavicle 6.67916e-014 -1.15295e-014
rhumerus 76.7672 -5.83295 -62.0196
rradius 17.345
rwrist 34.3114
rhand -6.59759 9.4917
rfingers 7.12502
rthumb 19.2578 -19.5748
lclavicle 6.67916e-014 -1.15295e-014
lhumerus -32.9791 11.5568 71.5984
lradius 22.6097
lwrist 0.816867
lhand -9.93926 12.0767
lfingers 7.12502
lthumb 16.0421 41.4325
rfemur -6.85375 7.16184 18.0997
rtibia 10.8662
rfoot -11.5619 -24.5769
rtoes -3.16299
lfemur -16.6251 -18.0804 -12.268
ltibia 15.4224
lfoot -5.20248 2.68212
ltoes -10.6105
469
root 0.478857 16.2574 -0.369315 9.00237 15.0727 -1.74524
lowerback 16.0771 4.56554 -1.49569
upperback 0.284968 5.56024 -2.37499
thorax -8.5995 2.6833 -2.99749
lowerneck -6.27468 -14.9344 -15.6857
upperneck -6.63409 -19.0522 23.6719
head 3.0847 -9.24034 8.32769
rclavicle 7.35503e-014 -1.43125e-014
rhumerus 76.2944 -5.30656 -60.6673
rradius 17.812
rwrist 33.1754
rhand -6.78295 9.40221
rfingers 7.12502
rthumb 19.0796 -19.682
lclavicle 7.35503e-014 -1.43125e-014
lhumerus -33.2951 11.4315 71.6201
lradius 22.6979
lwrist 1.01479
lhand -10.0171 12.2071
lfingers 7.12502
lthumb 15.9672 41.569
rfemur -6.70085 7.07609 17.9153
rtibia 10.8946
rfoot -11.1511 -24.4687
rtoes -4.65659
lfemur -16.3213 -18.0479 -12.5564
ltibia 15.3247
lfoot -5.20888 2.76499
ltoes -10.5989
470
root 0.484157 16.2566 -0.363341 8.89089 14.9475 -1.67048
lowerback 16.0685 4.52181 -1.47575
upperback 0.137174 5.50265 -2.39087
thorax -8.75428 2.65159 -3.02174
lowerneck -6.24535 -14.8405 -15.6815
upperneck -6.2409 -18.9833 23.5325
head 3.16186 -9.19569 8.2869
rclavicle -1.98785e-014 -1.98785e-014
rhumerus 75.8609 -4.88595 -59.8341
rradius 18.1835
rwrist 32.4194
rhand -6.83956 9.37524
rfingers 7.12502
rthumb 19.0251 -19.7143
lclavicle -1.98785e-014 -1.98785e-014
lhumerus -33.5525 11.1914 71.6014
lradius 22.7629
lwrist 1.0955
lhand -10.2131 12.4619
lfingers 7.12502
lthumb 15.7784 41.8389
rfemur -6.62289 6.97065 17.826
rtibia 11.067
rfoot -11.23 -24.2306
rtoes -4.60962
lfemur -15.9972 -17.9975 -12.7348
ltibia 15.1437
lfoot -5.13974 2.8462
ltoes -10.5901
471
root 0.486286 16.2566 -0.358644 8.77913 14.7718 -1.63861
lowerback 15.981 4.56079 -1.43246
upperback 0.00886914 5.55939 -2.43584
thorax -8.83481 2.67477 -3.10773
lowerneck -6.10891 -14.7908 -15.5897
upperneck -5.90684 -18.9861 23.4338
head 3.21482 -9.19656 8.24357
rclavicle -2.08724e-014 1.55052e-014
rhumerus 75.281 -4.64197 -58.6988
rradius 18.6244
rwrist 31.3317
rhand -6.88659 9.35158
rfingers 7.12502
rthumb 18.9799 -19.7424
lclavicle -2.08724e-014 1.55052e-014
lhumerus -33.6284 10.8201 71.6235
lradius 22.6961
lwrist 1.12234
lhand -10.4426 12.4741
lfingers 7.12502
lthumb 15.5574 41.8683
rfemur -6.63176 6.95316 17.7847
rtibia 11.293
rfoot -11.2171 -24.0948
rtoes -4.98625
lfemur -15.7033 -17.9576 -12.8337
ltibia 14.9715
lfoot -5.14661 2.94289
ltoes -10.4027
472
root 0.486696 16.2545 -0.354595 8.7072 14.5785 -1.49369
lowerback 15.8664 4.59518 -1.57068
upperback -0.0791163 5.58201 -2.43318
thorax -8.87968 2.69113 -3.02881
lowerneck -6.05315 -14.7259 -15.5345
upperneck -5.65611 -18.937 23.2433
head 3.23873 -9.16922 8.18276
rclavicle -1.1947e-013 5.96354e-015
rhumerus 74.7993 -4.2742 -57.266
rradius 19.1221
rwrist 30.048
rhand -6.93876 9.28518
rfingers 7.12502
rthumb 18.9297 -19.8137
lclavicle -1.1947e-013 5.96354e-015
lhumerus -33.696 10.8649 71.5858
lradius 22.5931
lwrist 0.947526
lhand -10.4767 12.2733
lfingers 7.12502
lthumb 15.5246 41.6701
rfemur -6.60477 6.97136 17.6276
rtibia 11.476
rfoot -11.6946 -23.8736
rtoes -3.4453
lfemur -15.4558 -17.864 -13.0592
ltibia 14.857
lfoot -5.18984 2.98953
ltoes -10.4572
473
root 0.488168 16.2521 -0.350024 8.65795 14.4589 -1.3763
lowerback 15.6969 4.53509 -1.67586
upperback -0.111495 5.49291 -2.38399
thorax -8.83756 2.65538 -2.88359
lowerneck -6.18592 -14.6413 -15.5702
upperneck -5.4184 -18.8313 23.0915
head 3.29341 -9.10121 8.14297
rclavicle -4.8901e-014 3.77691e-014
rhumerus 74.6145 -3.79244 -56.1789
rradius 19.5151
rwrist 29.1044
rhand -7.02798 9.26629
rfingers 7.12502
rthumb 18.8439 -19.8409
lclavicle -4.8901e-014 3.77691e-014
lhumerus -33.7001 11.1001 71.5931
lradius 22.5999
lwrist 0.859588
lhand -10.4753 12.4043
lfingers 7.12502
lthumb 15.5259 41.801
rfemur -6.56361 6.91118 17.5076
rtibia 11.6833
rfoot -12.6012 -23.5098
rtoes -0.312319
lfemur -15.2439 -17.7714 -13.2517
ltibia 14.7326
lfoot -5.16501 3.01883
ltoes -10.6529
474
root 0.491235 16.2501 -0.344884 8.58221 14.3372 -1.27709
lowerback 15.5499 4.47857 -1.72112
upperback -0.100746 5.41591 -2.37894
thorax -8.74995 2.62254 -2.82111
lowerneck -6.55795 -14.6185 -15.4919
upperneck -5.04642 -18.8069 22.8918
head 3.42395 -9.05603 8.03865
rclavicle 3.10104e-014 1.82882e-014
rhumerus 74.4957 -3.46582 -55.4672
rradius 19.8985
rwrist 28.5789
rhand -6.95976 9.30434
rfingers 7.12502
rthumb 18.9095 -19.7965
lclavicle 3.10104e-014 1.82882e-014
lhumerus -33.6225 11.0958 71.6523
lradius 22.6851
lwrist 0.911828
lhand -10.4264 12.7603
lfingers 7.12502
lthumb 15.573 42.1533
rfemur -6.5323 6.81857 17.3967
rtibia 11.8564
rfoot -12.595 -23.3197
rtoes -0.658981
lfemur -15.0161 -17.7168 -13.427
ltibia 14.6464
lfoot -5.21153 3.06229
ltoes -10.4993
475
root 0.49326 16.25 -0.337184 8.48218 14.1234 -1.14369
lowerback 15.4252 4.46025 -1.83524
upperback -0.14717 5.37487 -2.37821
thorax -8.74239 2.6083 -2.73948
lowerneck -6.71882 -14.5629 -15.5501
upperneck -4.65475 -18.7616 22.7683
head 3.54542 -9.01128 7.99545
rclavicle 2.50469e-014 2.98177e-014
rhumerus 74.1442 -3.01372 -54.2541
rradius 20.4363
rwrist 27.6039
rhand -7.06047 9.25666
rfingers 7.12502
rthumb 18.8127 -19.8536
lclavicle 2.50469e-014 2.98177e-014
lhumerus -33.668 11.0332 71.667
lradius 22.6934
lwrist 0.91834
lhand -10.4176 12.7772
lfingers 7.12502
lthumb 15.5815 42.1696
rfemur -6.44714 6.83133 17.2466
rtibia 11.9103
rfoot -12.0693 -23.2577
rtoes -2.72209
lfemur -14.7611 -17.6453 -13.651
ltibia 14.6315
lfoot -5.30713 3.14503
ltoes -10.3417
476
root 0.493606 16.2481 -0.328345 8.30187 13.9249 -1.20347
lowerback 15.3523 4.39132 -1.77304
upperback -0.270569 5.3003 -2.31994
thorax -8.83765 2.56992 -2.69637
lowerneck -6.65812 -14.4248 -15.6268
upperneck -4.27202 -18.6265 22.641
head 3.61331 -8.9371 7.98438
rclavicle 2.98177e-015 -5.1684e-015
rhumerus 73.7804 -2.36986 -53.201
rradius 20.908
rwrist 26.6396
rhand -7.16098 9.23382
rfingers 7.12502
rthumb 18.716 -19.8858
lclavicle 2.98177e-015 -5.1684e-015
lhumerus -33.8121 11.053 71.6375
lradius 22.638
lwrist 0.97305
lhand -10.5683 12.7905
lfingers 7.12502
lthumb 15.4363 42.1941
rfemur -6.23884 6.97313 17.3315
rtibia 11.8824
rfoot -12.3642 -23.1366
rtoes -1.43129
lfemur -14.4876 -17.5203 -13.6588
ltibia 14.636
lfoot -5.36333 3.14837
ltoes -10.2911
477
root 0.493975 16.2447 -0.318403 8.02506 13.7091 -1.30705
lowerback 15.2839 4.40048 -1.68526
upperback -0.290767 5.33544 -2.2632
thorax -8.81749 2.58486 -2.68735
lowerneck -6.8784 -14.363 -15.5142
upperneck -3.80669 -18.5817 22.4309
head 3.73942 -8.89 7.88474
rclavicle 1.17283e-014 -1.59028e-015
rhumerus 73.3741 -1.93981 -51.7971
rradius 21.4913
rwrist 25.398
rhand -7.10594 9.14707
rfingers 7.12502
rthumb 18.7689 -19.9674
lclavicle 1.17283e-014 -1.59028e-015
lhumerus -33.7378 11.1388 71.6112
lradius 22.5212
lwrist 0.853533
lhand -10.6775 12.6493
lfingers 7.12502
lthumb 15.3312 42.061
rfemur -5.9322 7.2774 17.4619
rtibia 11.8248
rfoot -12.5295 -23.1596
rtoes -0.916505
lfemur -14.1042 -17.3399 -13.6682
ltibia 14.6301
lfoot -5.40434 3.12862
ltoes -10.6632
478
root 0.496079 16.243 -0.30765 7.80552 13.534 -1.33233
lowerback 15.1615 4.46329 -1.59857
upperback -0.357249 5.43713 -2.27011
thorax -8.80945 2.63047 -2.75885
lowerneck -6.81147 -14.3296 -15.3559
upperneck -3.49257 -18.5929 22.2468
head 3.78389 -8.89311 7.8007
rclavicle 2.8625e-014 -2.46493e-014
rhumerus 72.7161 -1.58708 -50.0543
rradius 22.2073
rwrist 23.9388
rhand -7.06569 8.82696
rfingers 7.12502
rthumb 18.8076 -20.2838
lclavicle 2.8625e-014 -2.46493e-014
lhumerus -33.674 10.9595 71.6137
lradius 22.4602
lwrist 0.683763
lhand -10.6337 12.6656
lfingers 7.12502
lthumb 15.3734 42.0741
rfemur -5.64773 7.45879 17.4997
rtibia 11.7152
rfoot -12.176 -23.2482
rtoes -2.529
lfemur -13.7867 -17.2353 -13.7523
ltibia 14.6441
lfoot -5.48447 3.15313
ltoes -10.612
479
root 0.497126 16.2418 -0.297224 7.63556 13.354 -1.32038
lowerback 14.9726 4.48189 -1.56068
upperback -0.429086 5.47348 -2.27754
thorax -8.77574 2.64748 -2.78324
lowerneck -6.56074 -14.2604 -15.2842
upperneck -3.34759 -18.5507 22.1658
head 3.76062 -8.88494 7.78596
rclavicle 9.97899e-014 -2.82274e-014
rhumerus 72.1874 -1.11126 -48.5817
rradius 22.883
rwrist 22.7153
rhand -7.12074 8.62528
rfingers 7.12502
rthumb 18.7547 -20.4906
lclavicle 9.97899e-014 -2.82274e-014
lhumerus -33.6768 10.8356 71.5971
lradius 22.4944
lwrist 0.452263
lhand -10.4815 12.8004
lfingers 7.12502
lthumb 15.5199 42.1976
rfemur -5.40092 7.50806 17.5059
rtibia 11.6385
rfoot -12.1489 -23.148
rtoes -2.79498
lfemur -13.4872 -17.1254 -13.8586
ltibia 14.6137
lfoot -5.54993 3.17196
ltoes -10.404
480
root 0.498126 16.2406 -0.287893 7.45211 13.164 -1.35126
lowerback 14.7956 4.43911 -1.53305
upperback -0.452911 5.43161 -2.22748
thorax -8.70506 2.62916 -2.72107
lowerneck -6.62485 -14.1796 -15.1241
upperneck -3.1022 -18.4627 21.8913
head 3.77768 -8.83512 7.68267
rclavicle -1.68967e-014 -2.78299e-015
rhumerus 71.8973 -0.574221 -47.5807
rradius 23.5162
rwrist 21.9571
rhand -7.26679 8.72069
rfingers 7.12502
rthumb 18.6142 -20.4087
lclavicle -1.68967e-014 -2.78299e-015
lhumerus -33.6719 10.8679 71.6178
lradius 22.5863
lwrist 0.390058
lhand -10.4357 12.8677
lfingers 7.12502
lthumb 15.564 42.2615
rfemur -5.19485 7.57285 17.5568
rtibia 11.6198
rfoot -12.0349 -23.0977
rtoes -3.09383
lfemur -13.1724 -16.9809 -13.9184
ltibia 14.5586
lfoot -5.61205 3.16183
ltoes -10.362
